<svg width="75" height="60" viewBox="0 0 75 60" fill="none" xmlns="http://www.w3.org/2000/svg">
<path d="M27.5 17.6536L36.5033 10.4509C37.2548 9.84969 38.3227 9.84969 39.0742 10.4509L48.0775 17.6536" stroke="#7D848D" stroke-width="1.5" stroke-linecap="round" stroke-linejoin="round"/>
<path d="M35.1934 11.5311L31.0779 14.875C30.3307 15.4821 29.9571 15.7856 29.7573 16.2053C29.5576 16.6249 29.5576 17.1063 29.5576 18.0691V21.769C29.5576 25.6491 29.5576 27.5893 30.763 28.7946C31.9684 30 33.9085 30 37.7886 30C41.6687 30 43.6089 30 44.8142 28.7946C46.0196 27.5893 46.0196 25.6491 46.0196 21.769V18.0691C46.0196 17.1063 46.0196 16.6249 45.8199 16.2053C45.6201 15.7856 45.2465 15.4821 44.4994 14.875L40.3839 11.5311C39.1408 10.5211 38.5192 10.0161 37.7886 10.0161C37.058 10.0161 36.4365 10.5211 35.1934 11.5311Z" stroke="#7D848D" stroke-width="1.5"/>
<path d="M35.4736 24.084H40.1036" stroke="#7D848D" stroke-width="1.5" stroke-linecap="round"/>
<path d="M27.72 40.404H32.868V46.56H27.72V40.404ZM31.44 45.216V41.904H29.112V45.216H31.44ZM36.036 49.344H34.452V39.252H36.036V49.344ZM39.6509 39.78L41.2709 39.792C41.3669 40.656 41.9669 41.868 42.5309 42.804C42.8549 43.368 43.2269 43.932 43.6229 44.496H41.8349C41.3549 43.788 40.8389 42.84 40.4549 42.072C40.1069 42.888 39.6269 43.692 39.0149 44.496H37.0349C38.7989 42.672 39.5189 40.62 39.6509 39.78ZM44.6549 39.264H46.3349V45.756H44.6549V43.8H43.2269V42.408H44.6549V41.592H43.2269V40.236H44.6549V39.264ZM46.5149 49.104H39.4109V45.708H40.9109V47.724H46.5149V49.104Z" fill="#7D848D"/>
</svg>
